<?xml version="1.0" standalone="no"?>
<!DOCTYPE svg PUBLIC "-//W3C//DTD SVG 20010904//EN"
 "http://www.w3.org/TR/2001/REC-SVG-20010904/DTD/svg10.dtd">
<svg version="1.0" xmlns="http://www.w3.org/2000/svg"
 width="980.000000pt" height="980.000000pt" viewBox="0 0 980.000000 980.000000"
 preserveAspectRatio="xMidYMid meet">

<g transform="translate(0.000000,980.000000) scale(0.100000,-0.100000)"
fill="#000000" stroke="none">
<path d="M4575 8240 c-441 -50 -776 -146 -1150 -330 -410 -202 -747 -461
-1041 -800 -301 -347 -541 -791 -665 -1229 -30 -108 -36 -156 -20 -165 5 -4
56 5 113 19 56 14 123 25 147 25 35 0 55 8 105 44 67 48 67 47 127 191 243
582 657 1061 1204 1389 454 273 965 416 1490 416 573 0 1090 -154 1574 -468
l85 -54 200 80 c111 44 218 85 239 92 20 6 37 15 37 18 0 11 -182 151 -285
219 -420 279 -844 446 -1345 529 -136 23 -190 26 -445 29 -159 2 -326 0 -370
-5z"/>
<path d="M8615 7698 c-100 -34 -338 -128 -445 -175 -406 -178 -954 -509 -1320
-797 -269 -212 -769 -657 -841 -747 l-28 -36 47 -30 c342 -218 402 -254 412
-248 4 3 30 36 56 73 76 106 209 276 312 396 139 163 462 506 550 583 42 38
120 106 172 153 282 253 671 547 971 735 179 112 186 118 114 93z"/>
<path d="M7890 7596 c-514 -137 -934 -289 -1506 -546 -88 -40 -186 -84 -219
-98 -136 -61 -414 -201 -630 -319 -269 -147 -590 -343 -578 -353 4 -4 51 -13
103 -20 246 -31 448 -84 580 -150 l55 -28 74 70 c86 80 450 373 621 500 133
99 456 316 645 434 288 180 601 346 903 480 188 82 209 93 197 93 -5 0 -116
-28 -245 -63z"/>
<path d="M4595 7629 c-228 -24 -426 -70 -643 -150 -629 -233 -1112 -640 -1470
-1239 -50 -84 -124 -231 -119 -236 1 -2 64 28 139 67 141 71 316 145 401 169
42 11 54 21 89 72 172 255 495 532 811 698 254 134 453 196 802 252 121 19
464 16 605 -6 267 -41 426 -86 677 -192 l102 -43 93 43 c240 112 288 135 288
140 0 20 -335 197 -482 254 -230 91 -473 149 -713 172 -127 12 -463 11 -580
-1z"/>
<path d="M8885 7102 c-414 -216 -748 -464 -1169 -866 -92 -88 -175 -165 -182
-169 -8 -4 -116 -119 -241 -255 -171 -186 -222 -248 -207 -249 150 -16 298
-38 379 -58 55 -13 102 -22 105 -20 4 2 26 37 49 77 173 291 482 688 787 1008
108 114 507 505 568 558 27 23 47 42 45 42 -2 0 -62 -31 -134 -68z"/>
<path d="M3420 6199 c-155 -11 -386 -49 -505 -84 -127 -37 -315 -116 -441
-186 -111 -62 -317 -196 -389 -255 -37 -30 -45 -32 -120 -33 -72 0 -128 -10
-237 -43 -35 -10 -41 -9 -91 26 -45 31 -255 121 -263 113 -4 -3 112 -157 142
-188 13 -14 24 -30 24 -37 0 -6 -30 -41 -66 -78 -103 -103 -137 -196 -155
-425 -12 -152 0 -359 25 -444 9 -27 29 -71 45 -96 23 -36 32 -70 44 -152 19
-126 54 -234 110 -342 37 -70 45 -80 67 -77 14 1 164 5 333 8 l308 7 27 38
c32 47 11 48 352 -17 812 -154 1171 -239 1617 -380 125 -39 151 -52 215 -100
147 -112 296 -165 464 -165 116 0 206 17 360 66 l107 34 41 -22 c41 -22 45
-22 581 -22 607 0 889 15 1330 70 286 36 720 131 898 196 134 49 214 103 248
171 27 54 20 75 -51 154 -42 46 -64 81 -76 119 -17 53 -17 58 7 182 17 92 24
164 24 253 0 117 -2 129 -27 178 -74 142 -319 408 -465 505 -206 135 -463 224
-783 271 -133 20 -407 46 -477 46 -34 0 -68 7 -93 20 -22 11 -57 20 -79 20
-33 0 -61 15 -178 93 -401 271 -748 438 -958 462 -33 4 -113 17 -177 30 -141
29 -293 49 -533 71 -210 19 -1004 28 -1205 13z m1066 -76 c-4 -4 -141 -10
-304 -14 -163 -4 -359 -14 -435 -23 l-138 -16 -36 25 -37 24 100 4 c207 6 857
7 850 0z m-969 -36 c29 -15 69 -41 89 -59 46 -40 377 -416 460 -523 l63 -80
918 8 c639 6 951 5 1028 -2 194 -19 580 -129 845 -241 341 -143 567 -271 697
-393 18 -17 35 -28 38 -26 10 11 -204 214 -310 294 -113 85 -324 219 -433 274
-34 17 -62 34 -62 36 0 13 393 -47 570 -87 150 -34 243 -65 341 -113 112 -57
248 -155 339 -244 83 -82 200 -227 200 -248 0 -13 -162 -50 -323 -73 -167 -25
-778 -73 -838 -67 -30 4 -122 43 -275 117 -438 214 -678 315 -997 419 -372
121 -533 155 -992 211 -181 22 -450 55 -597 75 -263 34 -509 55 -660 55 -49 0
-78 4 -78 11 0 7 61 9 208 4 114 -4 211 -10 216 -13 22 -13 -11 33 -169 230
-267 334 -324 383 -470 409 -78 13 -218 7 -323 -16 -167 -35 -409 -146 -612
-281 -222 -148 -300 -204 -288 -208 7 -3 63 -14 123 -25 61 -11 308 -58 550
-105 891 -173 1032 -203 1260 -271 66 -20 156 -47 200 -59 l80 -23 51 29 c184
103 377 118 794 62 628 -85 885 -162 1526 -460 201 -93 347 -154 371 -154 7 0
13 -3 13 -7 0 -9 -180 -8 -525 2 -475 13 -555 24 -710 102 -111 56 -209 129
-295 220 -44 46 -80 89 -80 95 0 10 158 6 215 -6 11 -2 40 -7 65 -10 76 -12
244 -47 271 -57 33 -13 39 -27 74 -160 l27 -106 142 -7 c77 -3 218 -8 311 -11
l170 -6 -60 35 c-72 43 -403 190 -535 239 -253 93 -704 169 -748 125 -20 -20
-14 -52 16 -94 46 -62 259 -273 352 -347 221 -177 537 -312 1038 -443 181 -47
183 -48 160 -65 -12 -10 -140 -113 -283 -229 -143 -116 -280 -225 -305 -241
l-45 -30 100 5 c55 3 168 8 250 11 538 20 973 69 1345 151 190 42 261 65 334
109 56 34 76 32 56 -4 -17 -32 -93 -71 -208 -108 -112 -35 -421 -101 -602
-128 -141 -21 -732 -62 -1009 -71 -207 -7 -224 -6 -218 9 5 14 0 17 -23 17
-47 0 -41 12 59 119 49 53 46 71 -9 48 -27 -12 -327 -13 -327 -2 0 6 139 80
309 165 271 136 306 156 281 162 -15 4 -93 18 -173 32 -423 73 -820 246 -1082
470 -43 37 -78 65 -78 63 0 -2 22 -57 48 -123 77 -187 129 -413 137 -594 l5
-105 -24 110 c-40 184 -125 434 -204 605 -119 257 -323 477 -511 552 -46 18
-76 22 -166 22 -101 1 -116 -2 -181 -30 -96 -42 -155 -93 -221 -192 -61 -92
-93 -178 -118 -321 -27 -154 -36 -152 -31 9 3 126 7 155 31 224 15 43 23 82
18 86 -4 4 -60 20 -123 34 -63 14 -198 46 -300 71 -165 40 -450 99 -879 182
l-144 28 -33 85 c-39 100 -45 95 -9 -9 l24 -72 -27 5 c-45 9 -570 96 -581 96
-5 0 16 -36 47 -80 31 -43 104 -154 162 -245 299 -472 323 -502 465 -570 67
-32 972 -341 1143 -390 13 -4 22 -9 19 -11 -2 -3 -159 36 -348 85 -189 49
-470 121 -624 160 -154 40 -321 86 -372 103 l-92 31 -141 236 c-178 299 -189
314 -149 197 17 -48 39 -133 50 -187 40 -208 13 -240 -40 -46 -65 241 -180
504 -268 611 -201 247 -450 41 -479 -396 -11 -159 -24 -101 -24 105 0 271 19
381 83 488 84 141 328 243 523 219 l68 -9 50 46 c28 25 101 83 162 129 355
267 715 391 1099 380 74 -3 99 -8 142 -29z m1583 -24 c196 -19 231 -25 327
-62 99 -39 391 -195 554 -296 158 -98 321 -214 315 -224 -3 -4 -96 -11 -206
-15 l-201 -6 -52 38 c-269 198 -750 436 -1112 552 -55 17 -102 34 -105 36 -8
9 318 -7 480 -23z m-1548 -400 c37 -17 53 -32 77 -74 17 -30 27 -57 23 -60 -4
-4 -137 -9 -295 -11 -276 -3 -289 -2 -303 16 -17 24 -18 86 -1 109 17 23 201
47 342 43 86 -2 120 -7 157 -23z m-1776 -603 c23 -12 49 -31 57 -44 l15 -23
-38 19 c-33 17 -44 18 -81 8 -83 -23 -174 -148 -215 -300 -26 -94 -26 -368 -1
-460 27 -97 74 -185 123 -230 53 -48 80 -56 129 -36 34 15 36 15 24 0 -19 -23
-64 -44 -96 -44 -130 0 -245 306 -230 615 12 240 96 431 219 497 41 22 43 22
94 -2z m44 -95 c16 -8 38 -28 50 -45 l22 -31 -37 26 c-43 29 -65 31 -104 11
-32 -17 -94 -83 -114 -123 -42 -81 -62 -177 -62 -303 0 -144 12 -201 64 -315
27 -58 51 -92 86 -123 46 -40 47 -42 21 -42 -85 0 -162 117 -200 303 -51 248
27 560 159 634 47 27 75 29 115 8z m2950 -130 c169 -84 284 -264 342 -530 21
-100 16 -333 -10 -440 -28 -111 -87 -235 -142 -297 -46 -53 -140 -104 -210
-113 -133 -19 -282 117 -358 328 -113 312 -65 717 106 891 82 84 175 108 282
73 l45 -15 -64 -1 c-83 -1 -140 -28 -207 -98 -60 -62 -106 -150 -136 -260 -30
-112 -30 -323 0 -445 26 -104 65 -194 120 -276 106 -154 256 -205 366 -121
142 108 233 406 206 675 -22 217 -110 424 -227 536 -212 202 -482 41 -580
-348 -14 -53 -17 -109 -17 -244 1 -156 4 -186 27 -274 33 -122 78 -221 139
-305 26 -36 46 -66 44 -68 -1 -2 -19 3 -39 9 -82 29 -173 221 -213 452 -22
123 -14 380 14 481 61 222 157 355 297 412 49 21 152 10 215 -22z m3497 -740
c-54 -40 -322 -105 -539 -131 -158 -18 -648 -30 -698 -17 -28 8 -5 11 115 16
337 15 882 83 1060 131 68 19 85 19 62 1z m-1833 -397 c-3 -5 -10 -6 -15 -3
-5 4 -9 1 -9 -6 0 -7 -3 -10 -6 -6 -9 9 3 24 20 24 8 0 13 -4 10 -9z"/>
<path d="M5570 4911 c0 -15 110 -110 184 -159 69 -45 190 -101 260 -120 33
-10 36 -9 36 11 0 42 -53 196 -69 201 -21 6 -391 76 -402 76 -5 0 -9 -4 -9 -9z"/>
<path d="M7863 5682 l-162 -246 107 -56 c131 -68 203 -117 307 -209 l80 -71 3
33 c4 45 -42 356 -73 492 -30 132 -83 305 -93 305 -4 -1 -80 -112 -169 -248z"/>
<path d="M1940 3793 c-449 -16 -733 -61 -1070 -172 l-115 -38 70 -7 c450 -45
922 -174 1384 -377 210 -93 552 -271 811 -424 372 -218 417 -244 555 -316 470
-246 1000 -363 1492 -329 630 43 1183 269 1653 676 154 133 441 436 427 450
-3 3 -47 1 -99 -5 -525 -59 -1545 -69 -1647 -17 -27 14 -34 13 -109 -14 -135
-49 -225 -63 -385 -58 -110 4 -158 10 -212 27 -102 33 -203 85 -285 148 -76
58 -78 58 -405 154 -38 11 -90 27 -115 35 -25 7 -136 36 -247 63 -499 123
-933 188 -1318 197 -115 2 -235 5 -265 7 -30 1 -84 1 -120 0z"/>
<path d="M7760 3360 c-41 -10 -149 -31 -240 -45 -91 -15 -170 -30 -177 -33 -6
-4 -49 -56 -96 -117 -480 -623 -1159 -1025 -1944 -1151 -134 -22 -508 -30
-659 -14 -299 30 -604 107 -894 227 -143 59 -179 78 -1195 624 -121 65 -274
147 -340 182 -66 36 -122 64 -123 62 -7 -7 165 -254 247 -355 465 -572 1136
-971 1881 -1120 251 -50 399 -64 675 -64 260 0 414 14 635 55 953 180 1757
757 2242 1609 66 116 86 161 71 159 -4 0 -42 -9 -83 -19z"/>
</g>
</svg>
